<?xml version="1.0" encoding="UTF-8" standalone="no"?>
<svg
   xmlns:dc="http://purl.org/dc/elements/1.1/"
   xmlns:cc="http://creativecommons.org/ns#"
   xmlns:rdf="http://www.w3.org/1999/02/22-rdf-syntax-ns#"
   xmlns:svg="http://www.w3.org/2000/svg"
   xmlns="http://www.w3.org/2000/svg"
   xmlns:sodipodi="http://sodipodi.sourceforge.net/DTD/sodipodi-0.dtd"
   xmlns:inkscape="http://www.inkscape.org/namespaces/inkscape"
   inkscape:version="1.0 (4035a4f, 2020-05-01)"
   sodipodi:docname="markov_two.svg"
   viewBox="0 0 359.85999 177.368"
   height="177.368"
   width="359.85999"
   xml:space="preserve"
   id="svg28"
   version="1.1"><metadata
     id="metadata34"><rdf:RDF><cc:Work
         rdf:about=""><dc:format>image/svg+xml</dc:format><dc:type
           rdf:resource="http://purl.org/dc/dcmitype/StillImage" /><dc:title></dc:title></cc:Work></rdf:RDF></metadata><defs
     id="defs32"><clipPath
       id="clipPath56"
       clipPathUnits="userSpaceOnUse"><path
         id="path54"
         d="M 0,0 H 100 V 100 H 0 Z" /></clipPath><clipPath
       id="clipPath60"
       clipPathUnits="userSpaceOnUse"><path
         id="path58"
         d="M 0,0 H 100 V 100 H 0 Z" /></clipPath><clipPath
       id="clipPath64"
       clipPathUnits="userSpaceOnUse"><path
         id="path62"
         d="M 0,0 H 100 V 100 H 0 Z" /></clipPath><radialGradient
       id="radialGradient74"
       gradientUnits="userSpaceOnUse"
       r="50.000641"
       cy="50.000641"
       cx="50.000641"
       fy="50.000641"
       fx="50.000641"><stop
         id="stop66"
         offset="0"
         style="stop-opacity:1;stop-color:#ffffff" /><stop
         id="stop68"
         offset="21.25026"
         style="stop-opacity:1;stop-color:#ffffff" /><stop
         id="stop70"
         offset="25.00032"
         style="stop-opacity:0;stop-color:#ffffff" /><stop
         id="stop72"
         offset="50.00064"
         style="stop-opacity:0;stop-color:#ffffff" /></radialGradient><mask
       id="mask76"
       height="1"
       width="1"
       y="0"
       x="0"
       maskUnits="userSpaceOnUse"><g
         id="g98"><g
           id="g96"
           clip-path="url(#clipPath56)"><g
             id="g94"><g
               id="g92"><g
                 id="g90"
                 clip-path="url(#clipPath60)"><g
                   id="g88"><g
                     id="g84"><g
                       id="g82"><g
                         id="g80"
                         clip-path="url(#clipPath64)"><path
                           id="path78"
                           style="fill:url(#radialGradient74);stroke:none"
                           d="M 0,0 H 100 V 100 H 0 Z" /></g></g></g><g
                     id="g86"
                     transform="translate(100)" /></g></g></g></g></g></g></mask><clipPath
       id="clipPath140"
       clipPathUnits="userSpaceOnUse"><path
         id="path138"
         d="M 0,0 H 100 V 100 H 0 Z" /></clipPath><clipPath
       id="clipPath144"
       clipPathUnits="userSpaceOnUse"><path
         id="path142"
         d="M 0,0 H 100 V 100 H 0 Z" /></clipPath><clipPath
       id="clipPath148"
       clipPathUnits="userSpaceOnUse"><path
         id="path146"
         d="M 0,0 H 100 V 100 H 0 Z" /></clipPath><radialGradient
       id="radialGradient158"
       gradientUnits="userSpaceOnUse"
       r="50.000641"
       cy="50.000641"
       cx="50.000641"
       fy="50.000641"
       fx="50.000641"><stop
         id="stop150"
         offset="0"
         style="stop-opacity:1;stop-color:#ffffff" /><stop
         id="stop152"
         offset="21.25026"
         style="stop-opacity:1;stop-color:#ffffff" /><stop
         id="stop154"
         offset="25.00032"
         style="stop-opacity:0;stop-color:#ffffff" /><stop
         id="stop156"
         offset="50.00064"
         style="stop-opacity:0;stop-color:#ffffff" /></radialGradient><mask
       id="mask160"
       height="1"
       width="1"
       y="0"
       x="0"
       maskUnits="userSpaceOnUse"><g
         id="g182"><g
           id="g180"
           clip-path="url(#clipPath140)"><g
             id="g178"><g
               id="g176"><g
                 id="g174"
                 clip-path="url(#clipPath144)"><g
                   id="g172"><g
                     id="g168"><g
                       id="g166"><g
                         id="g164"
                         clip-path="url(#clipPath148)"><path
                           id="path162"
                           style="fill:url(#radialGradient158);stroke:none"
                           d="M 0,0 H 100 V 100 H 0 Z" /></g></g></g><g
                     id="g170"
                     transform="translate(100)" /></g></g></g></g></g></g></mask><clipPath
       id="clipPath224"
       clipPathUnits="userSpaceOnUse"><path
         id="path222"
         d="M 0,0 H 100 V 100 H 0 Z" /></clipPath><clipPath
       id="clipPath228"
       clipPathUnits="userSpaceOnUse"><path
         id="path226"
         d="M 0,0 H 100 V 100 H 0 Z" /></clipPath><clipPath
       id="clipPath232"
       clipPathUnits="userSpaceOnUse"><path
         id="path230"
         d="M 0,0 H 100 V 100 H 0 Z" /></clipPath><radialGradient
       id="radialGradient242"
       gradientUnits="userSpaceOnUse"
       r="50.000641"
       cy="50.000641"
       cx="50.000641"
       fy="50.000641"
       fx="50.000641"><stop
         id="stop234"
         offset="0"
         style="stop-opacity:1;stop-color:#ffffff" /><stop
         id="stop236"
         offset="21.25026"
         style="stop-opacity:1;stop-color:#ffffff" /><stop
         id="stop238"
         offset="25.00032"
         style="stop-opacity:0;stop-color:#ffffff" /><stop
         id="stop240"
         offset="50.00064"
         style="stop-opacity:0;stop-color:#ffffff" /></radialGradient><mask
       id="mask244"
       height="1"
       width="1"
       y="0"
       x="0"
       maskUnits="userSpaceOnUse"><g
         id="g266"><g
           id="g264"
           clip-path="url(#clipPath224)"><g
             id="g262"><g
               id="g260"><g
                 id="g258"
                 clip-path="url(#clipPath228)"><g
                   id="g256"><g
                     id="g252"><g
                       id="g250"><g
                         id="g248"
                         clip-path="url(#clipPath232)"><path
                           id="path246"
                           style="fill:url(#radialGradient242);stroke:none"
                           d="M 0,0 H 100 V 100 H 0 Z" /></g></g></g><g
                     id="g254"
                     transform="translate(100)" /></g></g></g></g></g></g></mask><clipPath
       id="clipPath308"
       clipPathUnits="userSpaceOnUse"><path
         id="path306"
         d="M 0,0 H 100 V 100 H 0 Z" /></clipPath><clipPath
       id="clipPath312"
       clipPathUnits="userSpaceOnUse"><path
         id="path310"
         d="M 0,0 H 100 V 100 H 0 Z" /></clipPath><clipPath
       id="clipPath316"
       clipPathUnits="userSpaceOnUse"><path
         id="path314"
         d="M 0,0 H 100 V 100 H 0 Z" /></clipPath><radialGradient
       id="radialGradient326"
       gradientUnits="userSpaceOnUse"
       r="50.000641"
       cy="50.000641"
       cx="50.000641"
       fy="50.000641"
       fx="50.000641"><stop
         id="stop318"
         offset="0"
         style="stop-opacity:1;stop-color:#ffffff" /><stop
         id="stop320"
         offset="21.25026"
         style="stop-opacity:1;stop-color:#ffffff" /><stop
         id="stop322"
         offset="25.00032"
         style="stop-opacity:0;stop-color:#ffffff" /><stop
         id="stop324"
         offset="50.00064"
         style="stop-opacity:0;stop-color:#ffffff" /></radialGradient><mask
       id="mask328"
       height="1"
       width="1"
       y="0"
       x="0"
       maskUnits="userSpaceOnUse"><g
         id="g350"><g
           id="g348"
           clip-path="url(#clipPath308)"><g
             id="g346"><g
               id="g344"><g
                 id="g342"
                 clip-path="url(#clipPath312)"><g
                   id="g340"><g
                     id="g336"><g
                       id="g334"><g
                         id="g332"
                         clip-path="url(#clipPath316)"><path
                           id="path330"
                           style="fill:url(#radialGradient326);stroke:none"
                           d="M 0,0 H 100 V 100 H 0 Z" /></g></g></g><g
                     id="g338"
                     transform="translate(100)" /></g></g></g></g></g></g></mask><clipPath
       id="clipPath392"
       clipPathUnits="userSpaceOnUse"><path
         id="path390"
         d="M 0,0 H 100 V 100 H 0 Z" /></clipPath><clipPath
       id="clipPath396"
       clipPathUnits="userSpaceOnUse"><path
         id="path394"
         d="M 0,0 H 100 V 100 H 0 Z" /></clipPath><clipPath
       id="clipPath400"
       clipPathUnits="userSpaceOnUse"><path
         id="path398"
         d="M 0,0 H 100 V 100 H 0 Z" /></clipPath><radialGradient
       id="radialGradient410"
       gradientUnits="userSpaceOnUse"
       r="50.000641"
       cy="50.000641"
       cx="50.000641"
       fy="50.000641"
       fx="50.000641"><stop
         id="stop402"
         offset="0"
         style="stop-opacity:1;stop-color:#ffffff" /><stop
         id="stop404"
         offset="21.25026"
         style="stop-opacity:1;stop-color:#ffffff" /><stop
         id="stop406"
         offset="25.00032"
         style="stop-opacity:0;stop-color:#ffffff" /><stop
         id="stop408"
         offset="50.00064"
         style="stop-opacity:0;stop-color:#ffffff" /></radialGradient><mask
       id="mask412"
       height="1"
       width="1"
       y="0"
       x="0"
       maskUnits="userSpaceOnUse"><g
         id="g434"><g
           id="g432"
           clip-path="url(#clipPath392)"><g
             id="g430"><g
               id="g428"><g
                 id="g426"
                 clip-path="url(#clipPath396)"><g
                   id="g424"><g
                     id="g420"><g
                       id="g418"><g
                         id="g416"
                         clip-path="url(#clipPath400)"><path
                           id="path414"
                           style="fill:url(#radialGradient410);stroke:none"
                           d="M 0,0 H 100 V 100 H 0 Z" /></g></g></g><g
                     id="g422"
                     transform="translate(100)" /></g></g></g></g></g></g></mask><clipPath
       id="clipPath476"
       clipPathUnits="userSpaceOnUse"><path
         id="path474"
         d="M 0,0 H 100 V 100 H 0 Z" /></clipPath><clipPath
       id="clipPath480"
       clipPathUnits="userSpaceOnUse"><path
         id="path478"
         d="M 0,0 H 100 V 100 H 0 Z" /></clipPath><clipPath
       id="clipPath484"
       clipPathUnits="userSpaceOnUse"><path
         id="path482"
         d="M 0,0 H 100 V 100 H 0 Z" /></clipPath><radialGradient
       id="radialGradient494"
       gradientUnits="userSpaceOnUse"
       r="50.000641"
       cy="50.000641"
       cx="50.000641"
       fy="50.000641"
       fx="50.000641"><stop
         id="stop486"
         offset="0"
         style="stop-opacity:1;stop-color:#ffffff" /><stop
         id="stop488"
         offset="21.25026"
         style="stop-opacity:1;stop-color:#ffffff" /><stop
         id="stop490"
         offset="25.00032"
         style="stop-opacity:0;stop-color:#ffffff" /><stop
         id="stop492"
         offset="50.00064"
         style="stop-opacity:0;stop-color:#ffffff" /></radialGradient><mask
       id="mask496"
       height="1"
       width="1"
       y="0"
       x="0"
       maskUnits="userSpaceOnUse"><g
         id="g518"><g
           id="g516"
           clip-path="url(#clipPath476)"><g
             id="g514"><g
               id="g512"><g
                 id="g510"
                 clip-path="url(#clipPath480)"><g
                   id="g508"><g
                     id="g504"><g
                       id="g502"><g
                         id="g500"
                         clip-path="url(#clipPath484)"><path
                           id="path498"
                           style="fill:url(#radialGradient494);stroke:none"
                           d="M 0,0 H 100 V 100 H 0 Z" /></g></g></g><g
                     id="g506"
                     transform="translate(100)" /></g></g></g></g></g></g></mask><clipPath
       id="clipPath560"
       clipPathUnits="userSpaceOnUse"><path
         id="path558"
         d="M 0,0 H 100 V 100 H 0 Z" /></clipPath><clipPath
       id="clipPath564"
       clipPathUnits="userSpaceOnUse"><path
         id="path562"
         d="M 0,0 H 100 V 100 H 0 Z" /></clipPath><clipPath
       id="clipPath568"
       clipPathUnits="userSpaceOnUse"><path
         id="path566"
         d="M 0,0 H 100 V 100 H 0 Z" /></clipPath><radialGradient
       id="radialGradient578"
       gradientUnits="userSpaceOnUse"
       r="50.000641"
       cy="50.000641"
       cx="50.000641"
       fy="50.000641"
       fx="50.000641"><stop
         id="stop570"
         offset="0"
         style="stop-opacity:1;stop-color:#ffffff" /><stop
         id="stop572"
         offset="21.25026"
         style="stop-opacity:1;stop-color:#ffffff" /><stop
         id="stop574"
         offset="25.00032"
         style="stop-opacity:0;stop-color:#ffffff" /><stop
         id="stop576"
         offset="50.00064"
         style="stop-opacity:0;stop-color:#ffffff" /></radialGradient><mask
       id="mask580"
       height="1"
       width="1"
       y="0"
       x="0"
       maskUnits="userSpaceOnUse"><g
         id="g602"><g
           id="g600"
           clip-path="url(#clipPath560)"><g
             id="g598"><g
               id="g596"><g
                 id="g594"
                 clip-path="url(#clipPath564)"><g
                   id="g592"><g
                     id="g588"><g
                       id="g586"><g
                         id="g584"
                         clip-path="url(#clipPath568)"><path
                           id="path582"
                           style="fill:url(#radialGradient578);stroke:none"
                           d="M 0,0 H 100 V 100 H 0 Z" /></g></g></g><g
                     id="g590"
                     transform="translate(100)" /></g></g></g></g></g></g></mask><clipPath
       id="clipPath644"
       clipPathUnits="userSpaceOnUse"><path
         id="path642"
         d="M 0,0 H 100 V 100 H 0 Z" /></clipPath><clipPath
       id="clipPath648"
       clipPathUnits="userSpaceOnUse"><path
         id="path646"
         d="M 0,0 H 100 V 100 H 0 Z" /></clipPath><clipPath
       id="clipPath652"
       clipPathUnits="userSpaceOnUse"><path
         id="path650"
         d="M 0,0 H 100 V 100 H 0 Z" /></clipPath><radialGradient
       id="radialGradient662"
       gradientUnits="userSpaceOnUse"
       r="50.000641"
       cy="50.000641"
       cx="50.000641"
       fy="50.000641"
       fx="50.000641"><stop
         id="stop654"
         offset="0"
         style="stop-opacity:1;stop-color:#ffffff" /><stop
         id="stop656"
         offset="21.25026"
         style="stop-opacity:1;stop-color:#ffffff" /><stop
         id="stop658"
         offset="25.00032"
         style="stop-opacity:0;stop-color:#ffffff" /><stop
         id="stop660"
         offset="50.00064"
         style="stop-opacity:0;stop-color:#ffffff" /></radialGradient><mask
       id="mask664"
       height="1"
       width="1"
       y="0"
       x="0"
       maskUnits="userSpaceOnUse"><g
         id="g686"><g
           id="g684"
           clip-path="url(#clipPath644)"><g
             id="g682"><g
               id="g680"><g
                 id="g678"
                 clip-path="url(#clipPath648)"><g
                   id="g676"><g
                     id="g672"><g
                       id="g670"><g
                         id="g668"
                         clip-path="url(#clipPath652)"><path
                           id="path666"
                           style="fill:url(#radialGradient662);stroke:none"
                           d="M 0,0 H 100 V 100 H 0 Z" /></g></g></g><g
                     id="g674"
                     transform="translate(100)" /></g></g></g></g></g></g></mask><clipPath
       id="clipPath728"
       clipPathUnits="userSpaceOnUse"><path
         id="path726"
         d="M 0,0 H 100 V 100 H 0 Z" /></clipPath><clipPath
       id="clipPath732"
       clipPathUnits="userSpaceOnUse"><path
         id="path730"
         d="M 0,0 H 100 V 100 H 0 Z" /></clipPath><clipPath
       id="clipPath736"
       clipPathUnits="userSpaceOnUse"><path
         id="path734"
         d="M 0,0 H 100 V 100 H 0 Z" /></clipPath><radialGradient
       id="radialGradient746"
       gradientUnits="userSpaceOnUse"
       r="50.000641"
       cy="50.000641"
       cx="50.000641"
       fy="50.000641"
       fx="50.000641"><stop
         id="stop738"
         offset="0"
         style="stop-opacity:1;stop-color:#ffffff" /><stop
         id="stop740"
         offset="21.25026"
         style="stop-opacity:1;stop-color:#ffffff" /><stop
         id="stop742"
         offset="25.00032"
         style="stop-opacity:0;stop-color:#ffffff" /><stop
         id="stop744"
         offset="50.00064"
         style="stop-opacity:0;stop-color:#ffffff" /></radialGradient><mask
       id="mask748"
       height="1"
       width="1"
       y="0"
       x="0"
       maskUnits="userSpaceOnUse"><g
         id="g770"><g
           id="g768"
           clip-path="url(#clipPath728)"><g
             id="g766"><g
               id="g764"><g
                 id="g762"
                 clip-path="url(#clipPath732)"><g
                   id="g760"><g
                     id="g756"><g
                       id="g754"><g
                         id="g752"
                         clip-path="url(#clipPath736)"><path
                           id="path750"
                           style="fill:url(#radialGradient746);stroke:none"
                           d="M 0,0 H 100 V 100 H 0 Z" /></g></g></g><g
                     id="g758"
                     transform="translate(100)" /></g></g></g></g></g></g></mask></defs><sodipodi:namedview
     inkscape:current-layer="g36"
     inkscape:window-maximized="0"
     inkscape:window-y="23"
     inkscape:window-x="0"
     inkscape:cy="88.683998"
     inkscape:cx="179.92999"
     inkscape:zoom="2.9261381"
     showgrid="false"
     id="namedview30"
     inkscape:window-height="480"
     inkscape:window-width="728"
     inkscape:pageshadow="2"
     inkscape:pageopacity="0"
     guidetolerance="10"
     gridtolerance="10"
     objecttolerance="10"
     borderopacity="1"
     bordercolor="#666666"
     pagecolor="#ffffff" /><g
     transform="matrix(1.3333333,0,0,-1.3333333,0,177.368)"
     inkscape:label="markov_two"
     inkscape:groupmode="layer"
     id="g36"><g
       transform="translate(18.123,74.816)"
       id="g38"><g
         id="g40"><g
           id="g42"><g
             id="g44"><g
               id="g46"><g
                 id="g48"><g
                   transform="matrix(0.55011,0,0,0.55011,-26.090675,-28.921755)"
                   id="g50"><g
                     id="g52" /><g
                     mask="url(#mask76)"
                     id="g100"><g
                       transform="matrix(1.99983,0,0,1.99983,50.0071,50.0071)"
                       id="g102"><path
                         id="path104"
                         style="fill:#808080;fill-opacity:1;fill-rule:nonzero;stroke:none"
                         d="M 12.45346,0 C 12.45346,6.87794 6.87794,12.45346 0,12.45346 -6.87794,12.45346 -12.45346,6.87794 -12.45346,0 c 0,-6.87794 5.57552,-12.45346 12.45346,-12.45346 6.87794,0 12.45346,5.57552 12.45346,12.45346 z" /></g></g></g></g></g><g
               id="g106"><path
                 id="path108"
                 style="fill:#ff8000;fill-opacity:1;fill-rule:nonzero;stroke:none"
                 d="M 12.45346,0 C 12.45346,6.87794 6.87794,12.45346 0,12.45346 -6.87794,12.45346 -12.45346,6.87794 -12.45346,0 c 0,-6.87794 5.57552,-12.45346 12.45346,-12.45346 6.87794,0 12.45346,5.57552 12.45346,12.45346 z" /></g><g
               transform="translate(-5.141,-2.657)"
               id="g110"><g
                 id="g112"><g
                   transform="translate(-12.982,-72.159)"
                   id="g114"><text
                     id="text118"
                     style="font-variant:normal;font-weight:normal;font-size:9.9626px;font-family:CMMI10;-inkscape-font-specification:CMMI10;writing-mode:lr-tb;fill:#ffffff;fill-opacity:1;fill-rule:nonzero;stroke:none"
                     transform="matrix(1,0,0,-1,12.982,72.159)"><tspan
                       id="tspan116"
                       y="0"
                       x="0">V</tspan></text><text
                     id="text122"
                     style="font-variant:normal;font-weight:normal;font-size:6.9738px;font-family:CMR7;-inkscape-font-specification:CMR7;writing-mode:lr-tb;fill:#ffffff;fill-opacity:1;fill-rule:nonzero;stroke:none"
                     transform="matrix(1,0,0,-1,18.794,70.664)"><tspan
                       id="tspan120"
                       y="0"
                       x="0">0</tspan></text><g
                     transform="translate(12.982,72.159)"
                     id="g124" /></g></g><g
                 transform="translate(5.141,2.657)"
                 id="g126" /></g></g><g
             id="g128"><g
               id="g130"><g
                 id="g132"><g
                   transform="matrix(0.55011,0,0,0.55011,13.997582,11.166482)"
                   id="g134"><g
                     id="g136" /><g
                     mask="url(#mask160)"
                     id="g184"><g
                       transform="matrix(1.99983,0,0,1.99983,-30.1631,-30.1631)"
                       id="g186"><path
                         id="path188"
                         style="fill:#808080;fill-opacity:1;fill-rule:nonzero;stroke:none"
                         d="m 52.54195,40.08847 c 0,6.87796 -5.57552,12.45348 -12.45348,12.45348 -6.87794,0 -12.45347,-5.57552 -12.45347,-12.45348 0,-6.87794 5.57553,-12.45347 12.45347,-12.45347 6.87796,0 12.45348,5.57553 12.45348,12.45347 z" /></g></g></g></g></g><g
               id="g190"><path
                 id="path192"
                 style="fill:#ff8000;fill-opacity:1;fill-rule:nonzero;stroke:none"
                 d="m 52.54195,40.08847 c 0,6.87796 -5.57552,12.45348 -12.45348,12.45348 -6.87794,0 -12.45347,-5.57552 -12.45347,-12.45348 0,-6.87794 5.57553,-12.45347 12.45347,-12.45347 6.87796,0 12.45348,5.57553 12.45348,12.45347 z" /></g><g
               transform="translate(34.947,37.431)"
               id="g194"><g
                 id="g196"><g
                   transform="translate(-53.07,-112.247)"
                   id="g198"><text
                     id="text202"
                     style="font-variant:normal;font-weight:normal;font-size:9.9626px;font-family:CMMI10;-inkscape-font-specification:CMMI10;writing-mode:lr-tb;fill:#ffffff;fill-opacity:1;fill-rule:nonzero;stroke:none"
                     transform="matrix(1,0,0,-1,53.07,112.247)"><tspan
                       id="tspan200"
                       y="0"
                       x="0">V</tspan></text><text
                     id="text206"
                     style="font-variant:normal;font-weight:normal;font-size:6.9738px;font-family:CMR7;-inkscape-font-specification:CMR7;writing-mode:lr-tb;fill:#ffffff;fill-opacity:1;fill-rule:nonzero;stroke:none"
                     transform="matrix(1,0,0,-1,58.882,110.752)"><tspan
                       id="tspan204"
                       y="0"
                       x="0">1</tspan></text><g
                     transform="translate(53.07,112.247)"
                     id="g208" /></g></g><g
                 transform="translate(-34.947,-37.431)"
                 id="g210" /></g></g><g
             id="g212"><g
               id="g214"><g
                 id="g216"><g
                   transform="matrix(0.55011,0,0,0.55011,13.997582,-69.010023)"
                   id="g218"><g
                     id="g220" /><g
                     mask="url(#mask244)"
                     id="g268"><g
                       transform="matrix(1.99983,0,0,1.99983,-30.1631,130.17735)"
                       id="g270"><path
                         id="path272"
                         style="fill:#808080;fill-opacity:1;fill-rule:nonzero;stroke:none"
                         d="m 52.54195,-40.08847 c 0,6.87794 -5.57552,12.45347 -12.45348,12.45347 -6.87794,0 -12.45347,-5.57553 -12.45347,-12.45347 0,-6.87796 5.57553,-12.45348 12.45347,-12.45348 6.87796,0 12.45348,5.57552 12.45348,12.45348 z" /></g></g></g></g></g><g
               id="g274"><path
                 id="path276"
                 style="fill:#ff8000;fill-opacity:1;fill-rule:nonzero;stroke:none"
                 d="m 52.54195,-40.08847 c 0,6.87794 -5.57552,12.45347 -12.45348,12.45347 -6.87794,0 -12.45347,-5.57553 -12.45347,-12.45347 0,-6.87796 5.57553,-12.45348 12.45347,-12.45348 6.87796,0 12.45348,5.57552 12.45348,12.45348 z" /></g><g
               transform="translate(34.947,-42.745)"
               id="g278"><g
                 id="g280"><g
                   transform="translate(-53.07,-32.071)"
                   id="g282"><text
                     id="text286"
                     style="font-variant:normal;font-weight:normal;font-size:9.9626px;font-family:CMMI10;-inkscape-font-specification:CMMI10;writing-mode:lr-tb;fill:#ffffff;fill-opacity:1;fill-rule:nonzero;stroke:none"
                     transform="matrix(1,0,0,-1,53.07,32.071)"><tspan
                       id="tspan284"
                       y="0"
                       x="0">V</tspan></text><text
                     id="text290"
                     style="font-variant:normal;font-weight:normal;font-size:6.9738px;font-family:CMR7;-inkscape-font-specification:CMR7;writing-mode:lr-tb;fill:#ffffff;fill-opacity:1;fill-rule:nonzero;stroke:none"
                     transform="matrix(1,0,0,-1,58.882,30.576)"><tspan
                       id="tspan288"
                       y="0"
                       x="0">2</tspan></text><g
                     transform="translate(53.07,32.071)"
                     id="g292" /></g></g><g
                 transform="translate(-34.947,42.745)"
                 id="g294" /></g></g><g
             id="g296"><g
               id="g298"><g
                 id="g300"><g
                   transform="matrix(0.55011,0,0,0.55011,70.690844,11.166482)"
                   id="g302"><g
                     id="g304" /><g
                     mask="url(#mask328)"
                     id="g352"><g
                       transform="matrix(1.99983,0,0,1.99983,-143.54083,-30.1631)"
                       id="g354"><path
                         id="path356"
                         style="fill:#808080;fill-opacity:1;fill-rule:nonzero;stroke:none"
                         d="m 109.23558,40.08847 c 0,6.87796 -5.57552,12.45348 -12.45348,12.45348 -6.87794,0 -12.45347,-5.57552 -12.45347,-12.45348 0,-6.87794 5.57553,-12.45347 12.45347,-12.45347 6.87796,0 12.45348,5.57553 12.45348,12.45347 z" /></g></g></g></g></g><g
               id="g358"><path
                 id="path360"
                 style="fill:#ff8000;fill-opacity:1;fill-rule:nonzero;stroke:none"
                 d="m 109.23558,40.08847 c 0,6.87796 -5.57552,12.45348 -12.45348,12.45348 -6.87794,0 -12.45347,-5.57552 -12.45347,-12.45348 0,-6.87794 5.57553,-12.45347 12.45347,-12.45347 6.87796,0 12.45348,5.57553 12.45348,12.45347 z" /></g><g
               transform="translate(91.64,37.431)"
               id="g362"><g
                 id="g364"><g
                   transform="translate(-109.763,-112.247)"
                   id="g366"><text
                     id="text370"
                     style="font-variant:normal;font-weight:normal;font-size:9.9626px;font-family:CMMI10;-inkscape-font-specification:CMMI10;writing-mode:lr-tb;fill:#ffffff;fill-opacity:1;fill-rule:nonzero;stroke:none"
                     transform="matrix(1,0,0,-1,109.763,112.247)"><tspan
                       id="tspan368"
                       y="0"
                       x="0">V</tspan></text><text
                     id="text374"
                     style="font-variant:normal;font-weight:normal;font-size:6.9738px;font-family:CMR7;-inkscape-font-specification:CMR7;writing-mode:lr-tb;fill:#ffffff;fill-opacity:1;fill-rule:nonzero;stroke:none"
                     transform="matrix(1,0,0,-1,115.575,110.752)"><tspan
                       id="tspan372"
                       y="0"
                       x="0">3</tspan></text><g
                     transform="translate(109.763,112.247)"
                     id="g376" /></g></g><g
                 transform="translate(-91.64,-37.431)"
                 id="g378" /></g></g><g
             id="g380"><g
               id="g382"><g
                 id="g384"><g
                   transform="matrix(0.55011,0,0,0.55011,110.77908,-28.921755)"
                   id="g386"><g
                     id="g388" /><g
                     mask="url(#mask412)"
                     id="g436"><g
                       transform="matrix(1.99983,0,0,1.99983,-223.71109,50.0071)"
                       id="g438"><path
                         id="path440"
                         style="fill:#808080;fill-opacity:1;fill-rule:nonzero;stroke:none"
                         d="m 149.32407,0 c 0,6.87794 -5.57552,12.45346 -12.45348,12.45346 -6.87794,0 -12.45348,-5.57552 -12.45348,-12.45346 0,-6.87794 5.57554,-12.45346 12.45348,-12.45346 6.87796,0 12.45348,5.57552 12.45348,12.45346 z" /></g></g></g></g></g><g
               id="g442"><path
                 id="path444"
                 style="fill:#ff8000;fill-opacity:1;fill-rule:nonzero;stroke:none"
                 d="m 149.32407,0 c 0,6.87794 -5.57552,12.45346 -12.45348,12.45346 -6.87794,0 -12.45348,-5.57552 -12.45348,-12.45346 0,-6.87794 5.57554,-12.45346 12.45348,-12.45346 6.87796,0 12.45348,5.57552 12.45348,12.45346 z" /></g><g
               transform="translate(131.728,-2.657)"
               id="g446"><g
                 id="g448"><g
                   transform="translate(-149.851,-72.159)"
                   id="g450"><text
                     id="text454"
                     style="font-variant:normal;font-weight:normal;font-size:9.9626px;font-family:CMMI10;-inkscape-font-specification:CMMI10;writing-mode:lr-tb;fill:#ffffff;fill-opacity:1;fill-rule:nonzero;stroke:none"
                     transform="matrix(1,0,0,-1,149.851,72.159)"><tspan
                       id="tspan452"
                       y="0"
                       x="0">V</tspan></text><text
                     id="text458"
                     style="font-variant:normal;font-weight:normal;font-size:6.9738px;font-family:CMR7;-inkscape-font-specification:CMR7;writing-mode:lr-tb;fill:#ffffff;fill-opacity:1;fill-rule:nonzero;stroke:none"
                     transform="matrix(1,0,0,-1,155.663,70.664)"><tspan
                       id="tspan456"
                       y="0"
                       x="0">4</tspan></text><g
                     transform="translate(149.851,72.159)"
                     id="g460" /></g></g><g
                 transform="translate(-131.728,2.657)"
                 id="g462" /></g></g><g
             id="g464"><g
               id="g466"><g
                 id="g468"><g
                   transform="matrix(0.55011,0,0,0.55011,167.47239,-28.921755)"
                   id="g470"><g
                     id="g472" /><g
                     mask="url(#mask496)"
                     id="g520"><g
                       transform="matrix(1.99983,0,0,1.99983,-337.0888,50.0071)"
                       id="g522"><path
                         id="path524"
                         style="fill:#808080;fill-opacity:1;fill-rule:nonzero;stroke:none"
                         d="m 206.0177,0 c 0,6.87794 -5.57552,12.45346 -12.45348,12.45346 -6.87794,0 -12.45347,-5.57552 -12.45347,-12.45346 0,-6.87794 5.57553,-12.45346 12.45347,-12.45346 6.87796,0 12.45348,5.57552 12.45348,12.45346 z" /></g></g></g></g></g><g
               id="g526"><path
                 id="path528"
                 style="fill:#ff8000;fill-opacity:1;fill-rule:nonzero;stroke:none"
                 d="m 206.0177,0 c 0,6.87794 -5.57552,12.45346 -12.45348,12.45346 -6.87794,0 -12.45347,-5.57552 -12.45347,-12.45346 0,-6.87794 5.57553,-12.45346 12.45347,-12.45346 6.87796,0 12.45348,5.57552 12.45348,12.45346 z" /></g><g
               transform="translate(188.421,-2.657)"
               id="g530"><g
                 id="g532"><g
                   transform="translate(-206.544,-72.159)"
                   id="g534"><text
                     id="text538"
                     style="font-variant:normal;font-weight:normal;font-size:9.9626px;font-family:CMMI10;-inkscape-font-specification:CMMI10;writing-mode:lr-tb;fill:#ffffff;fill-opacity:1;fill-rule:nonzero;stroke:none"
                     transform="matrix(1,0,0,-1,206.544,72.159)"><tspan
                       id="tspan536"
                       y="0"
                       x="0">V</tspan></text><text
                     id="text542"
                     style="font-variant:normal;font-weight:normal;font-size:6.9738px;font-family:CMR7;-inkscape-font-specification:CMR7;writing-mode:lr-tb;fill:#ffffff;fill-opacity:1;fill-rule:nonzero;stroke:none"
                     transform="matrix(1,0,0,-1,212.355,70.665)"><tspan
                       id="tspan540"
                       y="0"
                       x="0">5</tspan></text><g
                     transform="translate(206.544,72.159)"
                     id="g544" /></g></g><g
                 transform="translate(-188.421,2.657)"
                 id="g546" /></g></g><g
             id="g548"><g
               id="g550"><g
                 id="g552"><g
                   transform="matrix(0.55011,0,0,0.55011,167.47239,-85.615058)"
                   id="g554"><g
                     id="g556" /><g
                     mask="url(#mask580)"
                     id="g604"><g
                       transform="matrix(1.99983,0,0,1.99983,-337.0888,163.38486)"
                       id="g606"><path
                         id="path608"
                         style="fill:#808080;fill-opacity:1;fill-rule:nonzero;stroke:none"
                         d="m 206.0177,-56.69363 c 0,6.87796 -5.57552,12.45347 -12.45348,12.45347 -6.87794,0 -12.45347,-5.57551 -12.45347,-12.45347 0,-6.87795 5.57553,-12.45348 12.45347,-12.45348 6.87796,0 12.45348,5.57553 12.45348,12.45348 z" /></g></g></g></g></g><g
               id="g610"><path
                 id="path612"
                 style="fill:#ff8000;fill-opacity:1;fill-rule:nonzero;stroke:none"
                 d="m 206.0177,-56.69363 c 0,6.87796 -5.57552,12.45347 -12.45348,12.45347 -6.87794,0 -12.45347,-5.57551 -12.45347,-12.45347 0,-6.87795 5.57553,-12.45348 12.45347,-12.45348 6.87796,0 12.45348,5.57553 12.45348,12.45348 z" /></g><g
               transform="translate(188.421,-59.35)"
               id="g614"><g
                 id="g616"><g
                   transform="translate(-206.544,-15.466)"
                   id="g618"><text
                     id="text622"
                     style="font-variant:normal;font-weight:normal;font-size:9.9626px;font-family:CMMI10;-inkscape-font-specification:CMMI10;writing-mode:lr-tb;fill:#ffffff;fill-opacity:1;fill-rule:nonzero;stroke:none"
                     transform="matrix(1,0,0,-1,206.544,15.466)"><tspan
                       id="tspan620"
                       y="0"
                       x="0">V</tspan></text><text
                     id="text626"
                     style="font-variant:normal;font-weight:normal;font-size:6.9738px;font-family:CMR7;-inkscape-font-specification:CMR7;writing-mode:lr-tb;fill:#ffffff;fill-opacity:1;fill-rule:nonzero;stroke:none"
                     transform="matrix(1,0,0,-1,212.355,13.972)"><tspan
                       id="tspan624"
                       y="0"
                       x="0">6</tspan></text><g
                     transform="translate(206.544,15.466)"
                     id="g628" /></g></g><g
                 transform="translate(-188.421,59.35)"
                 id="g630" /></g></g><g
             id="g632"><g
               id="g634"><g
                 id="g636"><g
                   transform="matrix(0.55011,0,0,0.55011,207.56062,-69.010023)"
                   id="g638"><g
                     id="g640" /><g
                     mask="url(#mask664)"
                     id="g688"><g
                       transform="matrix(1.99983,0,0,1.99983,-417.2591,130.17735)"
                       id="g690"><path
                         id="path692"
                         style="fill:#808080;fill-opacity:1;fill-rule:nonzero;stroke:none"
                         d="m 246.10619,-40.08847 c 0,6.87794 -5.57552,12.45347 -12.45348,12.45347 -6.87794,0 -12.45348,-5.57553 -12.45348,-12.45347 0,-6.87796 5.57554,-12.45348 12.45348,-12.45348 6.87796,0 12.45348,5.57552 12.45348,12.45348 z" /></g></g></g></g></g><g
               id="g694"><path
                 id="path696"
                 style="fill:#ff8000;fill-opacity:1;fill-rule:nonzero;stroke:none"
                 d="m 246.10619,-40.08847 c 0,6.87794 -5.57552,12.45347 -12.45348,12.45347 -6.87794,0 -12.45348,-5.57553 -12.45348,-12.45347 0,-6.87796 5.57554,-12.45348 12.45348,-12.45348 6.87796,0 12.45348,5.57552 12.45348,12.45348 z" /></g><g
               transform="translate(228.509,-42.745)"
               id="g698"><g
                 id="g700"><g
                   transform="translate(-246.632,-32.071)"
                   id="g702"><text
                     id="text706"
                     style="font-variant:normal;font-weight:normal;font-size:9.9626px;font-family:CMMI10;-inkscape-font-specification:CMMI10;writing-mode:lr-tb;fill:#ffffff;fill-opacity:1;fill-rule:nonzero;stroke:none"
                     transform="matrix(1,0,0,-1,246.632,32.071)"><tspan
                       id="tspan704"
                       y="0"
                       x="0">V</tspan></text><text
                     id="text710"
                     style="font-variant:normal;font-weight:normal;font-size:6.9738px;font-family:CMR7;-inkscape-font-specification:CMR7;writing-mode:lr-tb;fill:#ffffff;fill-opacity:1;fill-rule:nonzero;stroke:none"
                     transform="matrix(1,0,0,-1,252.443,30.577)"><tspan
                       id="tspan708"
                       y="0"
                       x="0">7</tspan></text><g
                     transform="translate(246.632,32.071)"
                     id="g712" /></g></g><g
                 transform="translate(-228.509,42.745)"
                 id="g714" /></g></g><g
             id="g716"><g
               id="g718"><g
                 id="g720"><g
                   transform="matrix(0.55011,0,0,0.55011,207.56062,-12.316701)"
                   id="g722"><g
                     id="g724" /><g
                     mask="url(#mask748)"
                     id="g772"><g
                       transform="matrix(1.99983,0,0,1.99983,-417.2591,16.79962)"
                       id="g774"><path
                         id="path776"
                         style="fill:#808080;fill-opacity:1;fill-rule:nonzero;stroke:none"
                         d="m 246.10619,16.60515 c 0,6.87795 -5.57552,12.45347 -12.45348,12.45347 -6.87794,0 -12.45348,-5.57552 -12.45348,-12.45347 0,-6.87796 5.57554,-12.45348 12.45348,-12.45348 6.87796,0 12.45348,5.57552 12.45348,12.45348 z" /></g></g></g></g></g><g
               id="g778"><path
                 id="path780"
                 style="fill:#ff8000;fill-opacity:1;fill-rule:nonzero;stroke:none"
                 d="m 246.10619,16.60515 c 0,6.87795 -5.57552,12.45347 -12.45348,12.45347 -6.87794,0 -12.45348,-5.57552 -12.45348,-12.45347 0,-6.87796 5.57554,-12.45348 12.45348,-12.45348 6.87796,0 12.45348,5.57552 12.45348,12.45348 z" /></g><g
               transform="translate(228.509,13.948)"
               id="g782"><g
                 id="g784"><g
                   transform="translate(-246.632,-88.764)"
                   id="g786"><text
                     id="text790"
                     style="font-variant:normal;font-weight:normal;font-size:9.9626px;font-family:CMMI10;-inkscape-font-specification:CMMI10;writing-mode:lr-tb;fill:#ffffff;fill-opacity:1;fill-rule:nonzero;stroke:none"
                     transform="matrix(1,0,0,-1,246.632,88.764)"><tspan
                       id="tspan788"
                       y="0"
                       x="0">V</tspan></text><text
                     id="text794"
                     style="font-variant:normal;font-weight:normal;font-size:6.9738px;font-family:CMR7;-inkscape-font-specification:CMR7;writing-mode:lr-tb;fill:#ffffff;fill-opacity:1;fill-rule:nonzero;stroke:none"
                     transform="matrix(1,0,0,-1,252.443,87.269)"><tspan
                       id="tspan792"
                       y="0"
                       x="0">8</tspan></text><g
                     transform="translate(246.632,88.764)"
                     id="g796" /></g></g><g
                 transform="translate(-228.509,-13.948)"
                 id="g798" /></g></g><g
             id="g800"><path
               id="path802"
               style="fill:none;stroke:#000000;stroke-width:1.0959;stroke-linecap:butt;stroke-linejoin:miter;stroke-miterlimit:10;stroke-dasharray:none;stroke-opacity:1"
               d="M 13.00142,0 H 119.83424" /><g
               transform="translate(119.83424)"
               id="g804"><g
                 id="g806"><path
                   id="path808"
                   style="fill:#000000;fill-opacity:1;fill-rule:nonzero;stroke:none"
                   d="M 3.03864,0 -1.82318,2.43091 0,0 -1.82318,-2.43091" /></g></g></g><g
             id="g810"><path
               id="path812"
               style="fill:none;stroke:#000000;stroke-width:1.0959;stroke-linecap:butt;stroke-linejoin:miter;stroke-miterlimit:10;stroke-dasharray:none;stroke-opacity:1"
               d="M 9.19339,9.19339 28.04196,28.04196" /><g
               transform="matrix(0.7071,0.7071,-0.7071,0.7071,28.04196,28.04196)"
               id="g814"><g
                 id="g816"><path
                   id="path818"
                   style="fill:#000000;fill-opacity:1;fill-rule:nonzero;stroke:none"
                   d="M 3.03864,0 -1.82318,2.43091 0,0 -1.82318,-2.43091" /></g></g></g><g
             id="g820"><path
               id="path822"
               style="fill:none;stroke:#000000;stroke-width:1.0959;stroke-linecap:butt;stroke-linejoin:miter;stroke-miterlimit:10;stroke-dasharray:none;stroke-opacity:1"
               d="M 52.09956,35.11336 121.13194,6.5191" /><g
               transform="matrix(0.92383,-0.38266,0.38266,0.92383,121.13193,6.51912)"
               id="g824"><g
                 id="g826"><path
                   id="path828"
                   style="fill:#000000;fill-opacity:1;fill-rule:nonzero;stroke:none"
                   d="M 3.03864,0 -1.82318,2.43091 0,0 -1.82318,-2.43091" /></g></g></g><g
             id="g830"><path
               id="path832"
               style="fill:none;stroke:#000000;stroke-width:1.0959;stroke-linecap:butt;stroke-linejoin:miter;stroke-miterlimit:10;stroke-dasharray:none;stroke-opacity:1"
               d="M 105.97551,30.89508 124.82408,12.04651" /><g
               transform="matrix(0.7071,-0.7071,0.7071,0.7071,124.82408,12.04651)"
               id="g834"><g
                 id="g836"><path
                   id="path838"
                   style="fill:#000000;fill-opacity:1;fill-rule:nonzero;stroke:none"
                   d="M 3.03864,0 -1.82318,2.43091 0,0 -1.82318,-2.43091" /></g></g></g><g
             id="g840"><path
               id="path842"
               style="fill:none;stroke:#000000;stroke-width:1.0959;stroke-linecap:butt;stroke-linejoin:miter;stroke-miterlimit:10;stroke-dasharray:none;stroke-opacity:1"
               d="M 52.09956,-35.11336 121.13194,-6.5191" /><g
               transform="matrix(0.92383,0.38266,-0.38266,0.92383,121.13193,-6.51912)"
               id="g844"><g
                 id="g846"><path
                   id="path848"
                   style="fill:#000000;fill-opacity:1;fill-rule:nonzero;stroke:none"
                   d="M 3.03864,0 -1.82318,2.43091 0,0 -1.82318,-2.43091" /></g></g></g><g
             id="g850"><path
               id="path852"
               style="fill:none;stroke:#000000;stroke-width:1.0959;stroke-linecap:butt;stroke-linejoin:miter;stroke-miterlimit:10;stroke-dasharray:none;stroke-opacity:1"
               d="m 193.56422,-43.6922 v 26.65585" /><g
               transform="rotate(90,105.30029,88.263935)"
               id="g854"><g
                 id="g856"><path
                   id="path858"
                   style="fill:#000000;fill-opacity:1;fill-rule:nonzero;stroke:none"
                   d="M 3.03864,0 -1.82318,2.43091 0,0 -1.82318,-2.43091" /></g></g></g><g
             id="g860"><path
               id="path862"
               style="fill:none;stroke:#000000;stroke-width:1.0959;stroke-linecap:butt;stroke-linejoin:miter;stroke-miterlimit:10;stroke-dasharray:none;stroke-opacity:1"
               d="m 224.45932,-30.89508 -18.84857,18.84857" /><g
               transform="matrix(-0.7071,0.7071,-0.7071,-0.7071,205.61075,-12.04651)"
               id="g864"><g
                 id="g866"><path
                   id="path868"
                   style="fill:#000000;fill-opacity:1;fill-rule:nonzero;stroke:none"
                   d="M 3.03864,0 -1.82318,2.43091 0,0 -1.82318,-2.43091" /></g></g></g><g
             id="g870"><path
               id="path872"
               style="fill:none;stroke:#000000;stroke-width:1.0959;stroke-linecap:butt;stroke-linejoin:miter;stroke-miterlimit:10;stroke-dasharray:none;stroke-opacity:1"
               d="M 221.64163,11.63002 209.30289,6.5191" /><g
               transform="matrix(-0.92383,-0.38266,0.38266,-0.92383,209.3029,6.51912)"
               id="g874"><g
                 id="g876"><path
                   id="path878"
                   style="fill:#000000;fill-opacity:1;fill-rule:nonzero;stroke:none"
                   d="M 3.03864,0 -1.82318,2.43091 0,0 -1.82318,-2.43091" /></g></g></g><g
             id="g880"><path
               id="path882"
               style="fill:none;stroke:#000000;stroke-width:1.0959;stroke-linecap:butt;stroke-linejoin:miter;stroke-miterlimit:10;stroke-dasharray:none;stroke-opacity:1"
               d="M 180.5628,0 H 153.90695" /><g
               transform="rotate(180,76.953475,0)"
               id="g884"><g
                 id="g886"><path
                   id="path888"
                   style="fill:#000000;fill-opacity:1;fill-rule:nonzero;stroke:none"
                   d="M 3.03864,0 -1.82318,2.43091 0,0 -1.82318,-2.43091" /></g></g></g><g
             id="g890"><path
               id="path892"
               style="fill:none;stroke:#000000;stroke-width:1.0959;stroke-linecap:butt;stroke-linejoin:miter;stroke-miterlimit:10;stroke-dasharray:none;stroke-opacity:1"
               d="m 146.064,-9.19339 35.45372,-35.45372" /><g
               transform="matrix(0.7071,-0.7071,0.7071,0.7071,181.51772,-44.64711)"
               id="g894"><g
                 id="g896"><path
                   id="path898"
                   style="fill:#000000;fill-opacity:1;fill-rule:nonzero;stroke:none"
                   d="M 3.03864,0 -1.82318,2.43091 0,0 -1.82318,-2.43091" /></g></g></g></g></g></g></g></svg>
